<svg width="39" height="40" viewBox="0 0 39 40" fill="none" xmlns="http://www.w3.org/2000/svg">
<path d="M38.9814 20.3742C38.9814 18.7355 38.8487 17.5396 38.5616 16.2994H19.8885V23.6961H30.8492C30.6283 25.5342 29.435 28.3025 26.7831 30.1626L26.7459 30.4103L32.65 34.9939L33.0591 35.0349C36.8157 31.5579 38.9814 26.4422 38.9814 20.3742Z" fill="#4285F4"/>
<path d="M19.8885 39.8626C25.2583 39.8626 29.7663 38.0908 33.0591 35.0348L26.7831 30.1626C25.1037 31.3363 22.8496 32.1557 19.8885 32.1557C14.6291 32.1557 10.1653 28.6789 8.57407 23.8733L8.34083 23.8931L2.20168 28.6545L2.1214 28.8782C5.39191 35.389 12.1098 39.8626 19.8885 39.8626Z" fill="#34A853"/>
<path d="M8.57406 23.8733C8.1542 22.6331 7.91121 21.3043 7.91121 19.9313C7.91121 18.5582 8.1542 17.2295 8.55197 15.9893L8.54085 15.7252L2.32477 10.8873L2.12139 10.9843C0.773449 13.6861 0 16.7202 0 19.9313C0 23.1424 0.773449 26.1763 2.12139 28.8782L8.57406 23.8733Z" fill="#FBBC05"/>
<path d="M19.8885 7.70672C23.623 7.70672 26.1422 9.32336 27.5786 10.6744L33.1916 5.18214C29.7444 1.97099 25.2583 0 19.8885 0C12.1098 0 5.39191 4.47343 2.1214 10.9843L8.55198 15.9893C10.1653 11.1837 14.6291 7.70672 19.8885 7.70672Z" fill="#EB4335"/>
</svg>
