<svg width="33" height="40" viewBox="0 0 33 40" fill="none" xmlns="http://www.w3.org/2000/svg">
<path d="M24.5168 9.66424C21.1804 9.42055 18.3497 11.5036 16.7705 11.5036C15.1681 11.5036 12.6978 9.71679 10.0783 9.76552C6.63887 9.81535 3.46881 11.7409 1.69535 14.7803C-1.87707 20.9005 0.783431 29.9694 4.26302 34.9356C5.96525 37.3623 7.99529 40.0969 10.6618 39.9974C13.2284 39.8976 14.1993 38.359 17.3018 38.359C20.4023 38.359 21.2771 39.9974 23.9913 39.9484C26.7537 39.8976 28.5039 37.4713 30.1936 35.0312C32.149 32.2146 32.9523 29.4873 33 29.3432C32.9389 29.3203 27.6149 27.3043 27.5618 21.2502C27.5137 16.1887 31.7476 13.7558 31.9403 13.6387C29.5369 10.1451 25.8246 9.75981 24.5168 9.66424ZM22.458 6.38574C23.8752 4.69543 24.8286 2.34145 24.5662 0C22.5264 0.0799139 20.0599 1.34083 18.597 3.03005C17.2872 4.52649 16.1366 6.92308 16.4491 9.21675C18.7222 9.39005 21.0424 8.07713 22.458 6.38574Z" fill="#A9ADB1"/>
</svg>
