<svg width="120" height="206" viewBox="0 0 120 206" fill="none" xmlns="http://www.w3.org/2000/svg">
<path d="M37.5428 104.819C39.6056 106.518 41.5591 108.143 43.4261 109.695C45.5286 108.045 47.6929 106.187 50.029 104.578C51.3026 103.702 52.8877 103.291 54.2934 102.591C55.058 102.211 55.7621 102.036 55.3719 100.591C53.8493 94.9521 51.4651 89.9239 47.569 85.4554C42.2575 79.3635 36.0394 74.7062 28.5177 71.8741C27.4825 71.4843 25.9633 71.9884 24.7937 72.4201C19.1467 74.5043 13.7521 77.1135 8.9801 80.8439C7.66312 81.8734 6.53306 83.1429 5.10809 84.5018C3.44268 82.2665 1.89888 80.184 0.342965 78.1106C-0.458989 77.0419 0.307345 76.3123 0.990861 75.7718C3.40788 73.8603 5.6968 71.635 8.40877 70.2824C13.2939 67.8459 18.4566 65.9703 23.4903 63.8298C28.5149 61.6931 33.7626 60.0919 38.2991 56.8348C42.619 53.7333 45.5873 49.8376 46.8144 44.6455C47.0647 43.5866 47.4916 42.9387 48.7969 43.0046C51.1267 43.1222 53.4667 43.0377 56.0493 43.0377C55.0003 54.2329 49.5369 62.0924 39.1333 66.8385C46.8284 71.3009 52.9011 77.1384 57.7065 84.3435C58.9387 82.7791 60.0261 81.3588 61.1553 79.9725C64.2768 76.14 68.4234 73.8053 73.0342 72.4238C77.6916 71.0284 82.4269 71.394 87.1321 72.6183C89.1243 73.1367 90.1501 74.2335 90.6784 76.1829C91.6673 79.8324 91.8509 83.577 91.4127 87.2319C90.91 91.4253 89.075 95.238 86.5039 98.6592C84.2137 101.707 81.3828 104.057 77.983 105.745C77.6468 105.912 77.3415 106.141 76.9996 106.355C78.2216 107.639 79.3496 108.825 80.4685 110.001C82.5825 108.228 84.5581 106.255 86.8341 104.732C90.9283 101.992 95.6063 101.214 100.454 101.591C102.591 101.757 103.945 103.784 103.821 106.236C103.72 108.25 101.961 110.072 99.9231 109.997C96.5151 109.873 93.3302 110.368 90.5188 112.478C87.5561 114.701 85.6958 117.495 85.1325 121.263C84.2678 127.048 86.5632 131.33 91.1405 134.477C96.9104 138.445 105.791 136.707 109.497 129.966C112.515 124.475 111.813 119.476 108.22 114.598C106.77 112.628 107.035 109.889 108.654 108.531C110.532 106.957 113.215 107.157 114.881 109.347C119.027 114.796 121.047 120.785 119.458 127.773C118.52 131.9 116.726 135.538 113.847 138.477C110.135 142.267 105.528 144.545 99.9188 145.014C100.01 145.496 100.063 145.971 100.191 146.426C101.129 149.758 101.756 153.076 101.06 156.589C100.715 158.328 99.5931 159.097 98.2723 159.657C96.9211 160.23 94.3739 159.434 93.7791 158.212C93.2566 157.139 92.9827 155.851 92.9488 154.649C92.831 150.472 91.674 146.816 88.5336 143.868C81.8749 137.618 70.5574 139.679 67.3025 148.828C64.3768 157.052 68.4822 164.515 77.0042 166.653C80.3043 167.48 83.7591 166.741 86.6982 164.706C88.0984 163.736 89.5232 163.244 91.1951 163.829C92.8581 164.411 93.8098 165.512 93.9828 167.327C94.208 169.689 92.966 171.156 91.0444 172.054C88.251 173.359 85.3715 174.479 82.3966 175.733C82.717 177.21 83.2316 178.957 83.4475 180.741C83.6911 182.753 83.8181 184.806 83.7091 186.826C83.6232 188.417 81.2371 189.831 79.338 189.701C77.1002 189.547 75.3185 187.775 75.3419 185.486C75.3675 182.981 74.9458 180.622 73.9296 178.321C72.2162 174.443 67.4659 171.191 63.3811 170.982C59.4637 170.782 56.0323 171.75 53.1114 174.401C48.3735 178.701 47.2537 186.191 51.4244 192.007C55.776 198.076 64.5552 199.378 70.4145 194.428C71.9896 193.097 73.6897 192.372 75.7299 193.254C77.1768 193.879 78.2451 195.951 78.1397 197.704C78.0101 199.857 76.3059 200.881 74.8754 201.876C66.0926 207.99 54.3728 207.33 46.8156 199.735C40.125 193.01 39.0037 185.032 41.754 176.241C41.8216 176.025 41.8715 175.803 41.9156 175.637C39.2453 174.663 36.5609 173.856 34.0345 172.702C32.3664 171.94 30.7733 170.95 30.2064 168.819C29.7107 166.955 30.4445 165.717 31.6161 164.595C32.7841 163.476 34.2113 163.279 35.7233 163.924C37.736 164.784 39.6886 165.852 41.775 166.458C48.2405 168.334 55.8862 163.631 57.3758 157.05C58.4672 152.228 57.5227 147.822 54.0685 144.353C49.357 139.622 42.3008 138.726 36.6522 142.97C32.57 146.037 31.0878 150.293 31.309 155.306C31.4286 158.019 29.0415 160.057 26.3588 159.733C24.4967 159.508 22.9894 157.968 22.8961 156.081C22.7327 152.779 22.8381 149.484 23.9792 146.341C24.3433 145.338 24.2282 145.054 23.1609 144.905C18.0329 144.19 13.5845 142.052 10.049 138.217C7.09534 135.013 5.31506 131.233 4.56372 126.906C3.50466 120.807 4.97805 115.377 8.44992 110.369C9.9963 108.138 12.2585 107.02 14.0788 107.716C16.9916 108.829 17.8628 112.224 15.8571 114.757C11.3552 120.444 11.6707 127.273 16.28 132.376C21.0953 137.707 29.0369 137.978 34.5254 133.43C39.5693 129.251 40.458 121.986 37.4688 116.729C35.0673 112.506 31.3178 110.283 26.4583 110.033C24.5841 109.936 22.6275 110.411 21.1934 108.549C20.0962 107.124 20.203 105.556 20.6101 104.097C21.04 102.556 22.463 101.714 24.0064 101.593C28.7959 101.215 33.3129 102.177 37.5428 104.819ZM76.0419 120.776C75.4963 116.925 73.383 113.968 70.1429 112.149C64.3849 108.917 58.5782 108.85 52.9456 112.801C49.1039 115.496 46.675 121.837 48.0407 126.238C51.0688 135.997 58.1326 137.482 65.6059 136.283C73.0737 135.085 77.2034 128.467 76.0419 120.776ZM72.3092 82.5094C66.41 85.3125 63.3746 92.1052 63.7265 97.772C63.7929 98.8414 64.3144 99.6139 65.6247 99.4568C66.9926 99.2928 68.3882 99.3171 69.7417 99.0843C77.8505 97.6899 82.9654 90.2718 82.7056 82.4451C82.6758 81.5474 82.5626 80.9339 81.3583 80.7008C78.1526 80.0805 75.3335 81.0958 72.3092 82.5094Z" fill="black"/>
<path d="M36.52 14.12C36.056 13.144 35.384 12.392 34.504 11.864C33.624 11.32 32.6 11.048 31.432 11.048C30.264 11.048 29.208 11.32 28.264 11.864C27.336 12.392 26.6 13.16 26.056 14.168C25.528 15.16 25.264 16.312 25.264 17.624C25.264 18.936 25.528 20.088 26.056 21.08C26.6 22.072 27.336 22.84 28.264 23.384C29.208 23.912 30.264 24.176 31.432 24.176C33.064 24.176 34.408 23.688 35.464 22.712C36.52 21.736 37.136 20.416 37.312 18.752H30.64V16.976H39.64V18.656C39.512 20.032 39.08 21.296 38.344 22.448C37.608 23.584 36.64 24.488 35.44 25.16C34.24 25.816 32.904 26.144 31.432 26.144C29.88 26.144 28.464 25.784 27.184 25.064C25.904 24.328 24.888 23.312 24.136 22.016C23.4 20.72 23.032 19.256 23.032 17.624C23.032 15.992 23.4 14.528 24.136 13.232C24.888 11.92 25.904 10.904 27.184 10.184C28.464 9.448 29.88 9.08 31.432 9.08C33.208 9.08 34.776 9.52 36.136 10.4C37.512 11.28 38.512 12.52 39.136 14.12H36.52ZM44.7117 14.984C45.0957 14.232 45.6397 13.648 46.3437 13.232C47.0637 12.816 47.9357 12.608 48.9597 12.608V14.864H48.3837C45.9357 14.864 44.7117 16.192 44.7117 18.848V26H42.5277V12.848H44.7117V14.984ZM50.6648 19.376C50.6648 18.032 50.9368 16.856 51.4808 15.848C52.0248 14.824 52.7688 14.032 53.7128 13.472C54.6728 12.912 55.7368 12.632 56.9048 12.632C58.0568 12.632 59.0568 12.88 59.9048 13.376C60.7528 13.872 61.3848 14.496 61.8008 15.248V12.848H64.0088V26H61.8008V23.552C61.3688 24.32 60.7208 24.96 59.8568 25.472C59.0088 25.968 58.0168 26.216 56.8808 26.216C55.7128 26.216 54.6568 25.928 53.7128 25.352C52.7688 24.776 52.0248 23.968 51.4808 22.928C50.9368 21.888 50.6648 20.704 50.6648 19.376ZM61.8008 19.4C61.8008 18.408 61.6008 17.544 61.2008 16.808C60.8008 16.072 60.2568 15.512 59.5688 15.128C58.8968 14.728 58.1528 14.528 57.3368 14.528C56.5208 14.528 55.7768 14.72 55.1048 15.104C54.4328 15.488 53.8968 16.048 53.4968 16.784C53.0968 17.52 52.8968 18.384 52.8968 19.376C52.8968 20.384 53.0968 21.264 53.4968 22.016C53.8968 22.752 54.4328 23.32 55.1048 23.72C55.7768 24.104 56.5208 24.296 57.3368 24.296C58.1528 24.296 58.8968 24.104 59.5688 23.72C60.2568 23.32 60.8008 22.752 61.2008 22.016C61.6008 21.264 61.8008 20.392 61.8008 19.4ZM69.8836 15.272C70.3156 14.52 70.9556 13.896 71.8036 13.4C72.6676 12.888 73.6676 12.632 74.8036 12.632C75.9716 12.632 77.0276 12.912 77.9716 13.472C78.9316 14.032 79.6836 14.824 80.2276 15.848C80.7716 16.856 81.0436 18.032 81.0436 19.376C81.0436 20.704 80.7716 21.888 80.2276 22.928C79.6836 23.968 78.9316 24.776 77.9716 25.352C77.0276 25.928 75.9716 26.216 74.8036 26.216C73.6836 26.216 72.6916 25.968 71.8276 25.472C70.9796 24.96 70.3316 24.328 69.8836 23.576V32.24H67.6996V12.848H69.8836V15.272ZM78.8116 19.376C78.8116 18.384 78.6116 17.52 78.2116 16.784C77.8116 16.048 77.2676 15.488 76.5796 15.104C75.9076 14.72 75.1636 14.528 74.3476 14.528C73.5476 14.528 72.8036 14.728 72.1156 15.128C71.4436 15.512 70.8996 16.08 70.4836 16.832C70.0836 17.568 69.8836 18.424 69.8836 19.4C69.8836 20.392 70.0836 21.264 70.4836 22.016C70.8996 22.752 71.4436 23.32 72.1156 23.72C72.8036 24.104 73.5476 24.296 74.3476 24.296C75.1636 24.296 75.9076 24.104 76.5796 23.72C77.2676 23.32 77.8116 22.752 78.2116 22.016C78.6116 21.264 78.8116 20.384 78.8116 19.376ZM95.9183 18.92C95.9183 19.336 95.8943 19.776 95.8463 20.24H85.3343C85.4143 21.536 85.8543 22.552 86.6543 23.288C87.4703 24.008 88.4543 24.368 89.6063 24.368C90.5503 24.368 91.3343 24.152 91.9583 23.72C92.5983 23.272 93.0463 22.68 93.3023 21.944H95.6543C95.3023 23.208 94.5983 24.24 93.5423 25.04C92.4863 25.824 91.1743 26.216 89.6063 26.216C88.3583 26.216 87.2383 25.936 86.2463 25.376C85.2703 24.816 84.5023 24.024 83.9423 23C83.3823 21.96 83.1023 20.76 83.1023 19.4C83.1023 18.04 83.3743 16.848 83.9183 15.824C84.4623 14.8 85.2223 14.016 86.1983 13.472C87.1903 12.912 88.3263 12.632 89.6063 12.632C90.8543 12.632 91.9583 12.904 92.9183 13.448C93.8783 13.992 94.6143 14.744 95.1263 15.704C95.6543 16.648 95.9183 17.72 95.9183 18.92ZM93.6623 18.464C93.6623 17.632 93.4783 16.92 93.1103 16.328C92.7423 15.72 92.2383 15.264 91.5983 14.96C90.9743 14.64 90.2783 14.48 89.5103 14.48C88.4063 14.48 87.4623 14.832 86.6783 15.536C85.9103 16.24 85.4703 17.216 85.3583 18.464H93.6623Z" fill="black"/>
<path d="M62.688 41.848C62.976 41.3467 63.4027 40.9307 63.968 40.6C64.544 40.2587 65.2107 40.088 65.968 40.088C66.7467 40.088 67.4507 40.2747 68.08 40.648C68.72 41.0213 69.2213 41.5493 69.584 42.232C69.9467 42.904 70.128 43.688 70.128 44.584C70.128 45.4693 69.9467 46.2587 69.584 46.952C69.2213 47.6453 68.72 48.184 68.08 48.568C67.4507 48.952 66.7467 49.144 65.968 49.144C65.2213 49.144 64.56 48.9787 63.984 48.648C63.4187 48.3067 62.9867 47.8853 62.688 47.384V53.16H61.232V40.232H62.688V41.848ZM68.64 44.584C68.64 43.9227 68.5067 43.3467 68.24 42.856C67.9733 42.3653 67.6107 41.992 67.152 41.736C66.704 41.48 66.208 41.352 65.664 41.352C65.1307 41.352 64.6347 41.4853 64.176 41.752C63.728 42.008 63.3653 42.3867 63.088 42.888C62.8213 43.3787 62.688 43.9493 62.688 44.6C62.688 45.2613 62.8213 45.8427 63.088 46.344C63.3653 46.8347 63.728 47.2133 64.176 47.48C64.6347 47.736 65.1307 47.864 65.664 47.864C66.208 47.864 66.704 47.736 67.152 47.48C67.6107 47.2133 67.9733 46.8347 68.24 46.344C68.5067 45.8427 68.64 45.256 68.64 44.584ZM73.5005 37.16V49H72.0445V37.16H73.5005ZM75.438 44.584C75.438 43.688 75.6193 42.904 75.982 42.232C76.3447 41.5493 76.8407 41.0213 77.47 40.648C78.11 40.2747 78.8193 40.088 79.598 40.088C80.366 40.088 81.0327 40.2533 81.598 40.584C82.1633 40.9147 82.5847 41.3307 82.862 41.832V40.232H84.334V49H82.862V47.368C82.574 47.88 82.142 48.3067 81.566 48.648C81.0007 48.9787 80.3393 49.144 79.582 49.144C78.8033 49.144 78.0993 48.952 77.47 48.568C76.8407 48.184 76.3447 47.6453 75.982 46.952C75.6193 46.2587 75.438 45.4693 75.438 44.584ZM82.862 44.6C82.862 43.9387 82.7287 43.3627 82.462 42.872C82.1953 42.3813 81.8327 42.008 81.374 41.752C80.926 41.4853 80.43 41.352 79.886 41.352C79.342 41.352 78.846 41.48 78.398 41.736C77.95 41.992 77.5927 42.3653 77.326 42.856C77.0593 43.3467 76.926 43.9227 76.926 44.584C76.926 45.256 77.0593 45.8427 77.326 46.344C77.5927 46.8347 77.95 47.2133 78.398 47.48C78.846 47.736 79.342 47.864 79.886 47.864C80.43 47.864 80.926 47.736 81.374 47.48C81.8327 47.2133 82.1953 46.8347 82.462 46.344C82.7287 45.8427 82.862 45.2613 82.862 44.6ZM94.3465 40.232L89.0665 53.128H87.5625L89.2905 48.904L85.7545 40.232H87.3705L90.1225 47.336L92.8425 40.232H94.3465Z" fill="black"/>
</svg>
